<?xml version="1.0" encoding="UTF-8"?>
<svg id="Layer_1" xmlns="http://www.w3.org/2000/svg" version="1.1" viewBox="0 0 712.29 186.29">
  <!-- Generator: Adobe Illustrator 29.3.1, SVG Export Plug-In . SVG Version: 2.1.0 Build 151)  -->
  <defs>
    <style>
      .st0 {
        fill: #e43d30;
      }

      .st1 {
        fill: #231f20;
      }
    </style>
  </defs>
  <path class="st1" d="M193.12,120.34c0-32.9,22.42-52.37,54.36-52.37s54.36,19.47,54.36,52.37-22.62,52.37-54.36,52.37-54.36-19.27-54.36-52.37ZM267.71,120.34c0-17.91-7.74-28.81-20.24-28.81s-20.24,10.9-20.24,28.81,7.54,28.81,20.24,28.81,20.24-10.71,20.24-28.81Z"/>
  <path class="st1" d="M365.23,69.1c-10.91,0-19.33,3.26-25.65,10.34h-.76V31.36h-12.53c-.35,7.23-8.27,13-17.99,13-.55,0-1.1-.02-1.64-.06v125.11h32.16v-7.66h.95c5.94,7.66,14.55,10.34,25.46,10.34,24.7,0,43.46-18.95,43.46-51.5s-18.96-51.49-43.46-51.49ZM357,148.93c-11.1,0-19.14-10.53-19.14-28.34s8.04-28.33,19.14-28.33,18.76,10.72,18.76,28.33-7.47,28.34-18.76,28.34Z"/>
  <path class="st1" d="M156.58,31.43v139.74s14.59,3.81,32.16,0V31.43c-15.57-2.93-32.16,0-32.16,0Z"/>
  <path class="st1" d="M306.66,169.41s15.67,3.05,32.16,0l-19.28-5.05-12.88,5.05Z"/>
  <path class="st0" d="M486.39,144.28c-3.52,1.37-8.81,2.74-13.12,2.74-8.03,0-11.94-3.33-11.94-14.69v-39.36h0s25.65,0,25.65,0c2.68-10.38,0-23.5,0-23.5h-25.65v-29.37h0s-9.96,0-9.96,0c-.52,0-.99.29-1.23.75l-41.74,43.06h.45v9.07h19.58s0,0,0,0v46.8c0,23.5,15.67,32.31,33.88,32.31,8.81,0,18.21-.98,24.08-2.74,2.09-11.01,0-25.06,0-25.06h0Z"/>
  <path class="st0" d="M574.84,137.63c-10.15,8.23-20.29,11.68-31.78,11.68-13.59,0-20.87-7.66-21.25-19.91h66.04c.96-4.4,1.34-9,1.34-13.02,0-32.92-21.63-47.28-48.81-47.28-32.54,0-51.3,20.48-51.3,51.68s17.42,51.3,51.88,51.3c21.25,0,34.46-4.98,47.09-14.55-3.25-11.82-13.21-19.91-13.21-19.91ZM540.38,92.26c10.72,0,16.65,5.93,17.99,17.8h-35.61c1.72-12.44,9.38-17.8,17.61-17.8Z"/>
  <path class="st0" d="M198.99,66.48s6.77-12.55,23.38-20.38c7.74-3.65,21.5-9.49,42.08-6.74,17.89,2.39,24.67,5.66,38.12,1.13,13.45-4.53,16.97-9.68,20.99-15.52,5.52-8.02,7.26-12.8,7.26-12.8l33.32.73s-4.56,24.89-25.82,38.1c-23.02,14.3-51.25,9.7-60.41,7.12-7.07-1.99-26.25-10.73-44.14-7.06-20.06,4.11-33.55,16.33-33.55,16.33l-1.24-.91Z"/>
  <path class="st0" d="M651.31,115.28l41.14-43.22c-28.85-2.3-39.62,0-39.62,0l-25.21,28.62V30.36c-19.68-2-31.85,0-31.85,0v138.38s18.16,2.38,31.85,0v-36.02l29.38,36.02s14.83,2.38,40.57,0l-46.25-53.46Z"/>
  <path class="st1" d="M81.53,94.58s-2.41,9.79,0,25.1h28.89v21.46c-7.17,3.64-14.74,5.56-23.51,5.56-19.53,0-34.87-14.75-34.87-44.83,0-32.19,16.94-44.83,36.06-44.83,10.96,0,23.71,2.68,40.65,13.03,9.42-11.87,12.15-23.95,12.15-23.95-17.73-10.54-36.06-14.75-55.19-14.75-41.24,0-70.13,23.95-70.13,70.69,0,44.25,27.1,70.31,69.34,70.31,25.3,0,45.43-8.62,60.97-19.16v-58.62h-64.36Z"/>
</svg>